<svg width="779.883" height="84.766" viewBox="0 0 779.883 84.766" xmlns="http://www.w3.org/2000/svg"><g id="svgGroup" stroke-linecap="round" fill-rule="evenodd" font-size="9pt" stroke="#000000" stroke-width="0.25mm" fill="#ff0000" style="stroke:#000000;stroke-width:0.25mm;fill:#ff0000"><path d="M 105.859 59.766 L 186.524 59.766 A 8.249 8.249 0 0 0 188.265 59.593 Q 189.413 59.345 190.276 58.742 A 4.867 4.867 0 0 0 190.82 58.301 A 5.231 5.231 0 0 0 191.859 56.981 A 4.336 4.336 0 0 0 192.383 54.883 Q 192.383 52.93 190.82 51.465 A 5.195 5.195 0 0 0 188.516 50.233 Q 187.613 50 186.524 50 L 105.859 50 A 8.249 8.249 0 0 0 104.118 50.173 Q 102.971 50.421 102.107 51.024 A 4.867 4.867 0 0 0 101.563 51.465 A 5.231 5.231 0 0 0 100.524 52.785 A 4.336 4.336 0 0 0 100 54.883 Q 100 56.836 101.563 58.301 A 5.195 5.195 0 0 0 103.867 59.533 Q 104.77 59.766 105.859 59.766 Z M 105.859 47.266 L 186.524 47.266 A 8.249 8.249 0 0 0 188.265 47.093 Q 189.413 46.845 190.276 46.242 A 4.867 4.867 0 0 0 190.82 45.801 A 5.231 5.231 0 0 0 191.859 44.481 A 4.336 4.336 0 0 0 192.383 42.383 Q 192.383 40.43 190.82 38.965 A 5.195 5.195 0 0 0 188.516 37.733 Q 187.613 37.5 186.524 37.5 L 105.859 37.5 A 8.249 8.249 0 0 0 104.118 37.673 Q 102.971 37.921 102.107 38.524 A 4.867 4.867 0 0 0 101.563 38.965 A 5.231 5.231 0 0 0 100.524 40.285 A 4.336 4.336 0 0 0 100 42.383 Q 100 44.336 101.563 45.801 A 5.195 5.195 0 0 0 103.867 47.033 Q 104.77 47.266 105.859 47.266 Z M 405.859 59.766 L 474.024 59.766 A 8.249 8.249 0 0 0 475.765 59.593 Q 476.913 59.345 477.776 58.742 A 4.867 4.867 0 0 0 478.32 58.301 A 5.231 5.231 0 0 0 479.359 56.981 A 4.336 4.336 0 0 0 479.883 54.883 Q 479.883 52.93 478.32 51.465 A 5.195 5.195 0 0 0 476.016 50.233 Q 475.113 50 474.024 50 L 405.859 50 A 8.249 8.249 0 0 0 404.118 50.173 Q 402.971 50.421 402.107 51.024 A 4.867 4.867 0 0 0 401.563 51.465 A 5.231 5.231 0 0 0 400.524 52.785 A 4.336 4.336 0 0 0 400 54.883 Q 400 56.836 401.563 58.301 A 5.195 5.195 0 0 0 403.867 59.533 Q 404.77 59.766 405.859 59.766 Z M 605.859 59.766 L 674.024 59.766 A 8.249 8.249 0 0 0 675.765 59.593 Q 676.913 59.345 677.776 58.742 A 4.867 4.867 0 0 0 678.32 58.301 A 5.231 5.231 0 0 0 679.359 56.981 A 4.336 4.336 0 0 0 679.883 54.883 Q 679.883 52.93 678.32 51.465 A 5.195 5.195 0 0 0 676.016 50.233 Q 675.113 50 674.024 50 L 605.859 50 A 8.249 8.249 0 0 0 604.118 50.173 Q 602.971 50.421 602.107 51.024 A 4.867 4.867 0 0 0 601.563 51.465 A 5.231 5.231 0 0 0 600.524 52.785 A 4.336 4.336 0 0 0 600 54.883 Q 600 56.836 601.563 58.301 A 5.195 5.195 0 0 0 603.867 59.533 Q 604.77 59.766 605.859 59.766 Z M 5.859 47.266 L 74.024 47.266 A 8.249 8.249 0 0 0 75.765 47.093 Q 76.913 46.845 77.776 46.242 A 4.867 4.867 0 0 0 78.32 45.801 A 5.231 5.231 0 0 0 79.359 44.481 A 4.336 4.336 0 0 0 79.883 42.383 Q 79.883 40.43 78.32 38.965 A 5.195 5.195 0 0 0 76.016 37.733 Q 75.113 37.5 74.024 37.5 L 5.859 37.5 A 8.249 8.249 0 0 0 4.118 37.673 Q 2.971 37.921 2.107 38.524 A 4.867 4.867 0 0 0 1.563 38.965 A 5.231 5.231 0 0 0 0.524 40.285 A 4.336 4.336 0 0 0 0 42.383 Q 0 44.336 1.563 45.801 A 5.195 5.195 0 0 0 3.867 47.033 Q 4.77 47.266 5.859 47.266 Z M 218.359 84.766 L 274.024 84.766 A 8.249 8.249 0 0 0 275.765 84.593 Q 276.913 84.345 277.776 83.742 A 4.867 4.867 0 0 0 278.32 83.301 A 5.231 5.231 0 0 0 279.359 81.981 A 4.336 4.336 0 0 0 279.883 79.883 Q 279.883 77.93 278.32 76.465 A 5.195 5.195 0 0 0 276.016 75.233 Q 275.113 75 274.024 75 L 218.359 75 A 8.249 8.249 0 0 0 216.618 75.173 Q 215.471 75.421 214.607 76.024 A 4.867 4.867 0 0 0 214.063 76.465 A 5.231 5.231 0 0 0 213.024 77.785 A 4.336 4.336 0 0 0 212.5 79.883 Q 212.5 81.836 214.063 83.301 A 5.195 5.195 0 0 0 216.367 84.533 Q 217.27 84.766 218.359 84.766 Z M 218.359 59.766 L 274.024 59.766 A 8.249 8.249 0 0 0 275.765 59.593 Q 276.913 59.345 277.776 58.742 A 4.867 4.867 0 0 0 278.32 58.301 A 5.231 5.231 0 0 0 279.359 56.981 A 4.336 4.336 0 0 0 279.883 54.883 Q 279.883 52.93 278.32 51.465 A 5.195 5.195 0 0 0 276.016 50.233 Q 275.113 50 274.024 50 L 218.359 50 A 8.249 8.249 0 0 0 216.618 50.173 Q 215.471 50.421 214.607 51.024 A 4.867 4.867 0 0 0 214.063 51.465 A 5.231 5.231 0 0 0 213.024 52.785 A 4.336 4.336 0 0 0 212.5 54.883 Q 212.5 56.836 214.063 58.301 A 5.195 5.195 0 0 0 216.367 59.533 Q 217.27 59.766 218.359 59.766 Z M 305.859 34.766 L 361.524 34.766 A 8.249 8.249 0 0 0 363.265 34.593 Q 364.413 34.345 365.276 33.742 A 4.867 4.867 0 0 0 365.82 33.301 A 5.231 5.231 0 0 0 366.859 31.981 A 4.336 4.336 0 0 0 367.383 29.883 Q 367.383 27.93 365.82 26.465 A 5.195 5.195 0 0 0 363.516 25.233 Q 362.613 25 361.524 25 L 305.859 25 A 8.249 8.249 0 0 0 304.118 25.173 Q 302.971 25.421 302.107 26.024 A 4.867 4.867 0 0 0 301.563 26.465 A 5.231 5.231 0 0 0 300.524 27.785 A 4.336 4.336 0 0 0 300 29.883 Q 300 31.836 301.563 33.301 A 5.195 5.195 0 0 0 303.867 34.533 Q 304.77 34.766 305.859 34.766 Z M 18.359 22.266 L 61.524 22.266 A 8.249 8.249 0 0 0 63.265 22.093 Q 64.413 21.845 65.276 21.242 A 4.867 4.867 0 0 0 65.82 20.801 A 5.231 5.231 0 0 0 66.859 19.481 A 4.336 4.336 0 0 0 67.383 17.383 Q 67.383 15.43 65.82 13.965 A 5.195 5.195 0 0 0 63.516 12.733 Q 62.613 12.5 61.524 12.5 L 18.359 12.5 A 8.249 8.249 0 0 0 16.618 12.673 Q 15.471 12.921 14.607 13.524 A 4.867 4.867 0 0 0 14.063 13.965 A 5.231 5.231 0 0 0 13.024 15.285 A 4.336 4.336 0 0 0 12.5 17.383 Q 12.5 19.336 14.063 20.801 A 5.195 5.195 0 0 0 16.367 22.033 Q 17.27 22.266 18.359 22.266 Z M 218.359 34.766 L 261.524 34.766 A 8.249 8.249 0 0 0 263.265 34.593 Q 264.413 34.345 265.276 33.742 A 4.867 4.867 0 0 0 265.82 33.301 A 5.231 5.231 0 0 0 266.859 31.981 A 4.336 4.336 0 0 0 267.383 29.883 Q 267.383 27.93 265.82 26.465 A 5.195 5.195 0 0 0 263.516 25.233 Q 262.613 25 261.524 25 L 218.359 25 A 8.249 8.249 0 0 0 216.618 25.173 Q 215.471 25.421 214.607 26.024 A 4.867 4.867 0 0 0 214.063 26.465 A 5.231 5.231 0 0 0 213.024 27.785 A 4.336 4.336 0 0 0 212.5 29.883 Q 212.5 31.836 214.063 33.301 A 5.195 5.195 0 0 0 216.367 34.533 Q 217.27 34.766 218.359 34.766 Z M 418.359 34.766 L 461.524 34.766 A 8.249 8.249 0 0 0 463.265 34.593 Q 464.413 34.345 465.276 33.742 A 4.867 4.867 0 0 0 465.82 33.301 A 5.231 5.231 0 0 0 466.859 31.981 A 4.336 4.336 0 0 0 467.383 29.883 Q 467.383 27.93 465.82 26.465 A 5.195 5.195 0 0 0 463.516 25.233 Q 462.613 25 461.524 25 L 418.359 25 A 8.249 8.249 0 0 0 416.618 25.173 Q 415.471 25.421 414.607 26.024 A 4.867 4.867 0 0 0 414.063 26.465 A 5.231 5.231 0 0 0 413.024 27.785 A 4.336 4.336 0 0 0 412.5 29.883 Q 412.5 31.836 414.063 33.301 A 5.195 5.195 0 0 0 416.367 34.533 Q 417.27 34.766 418.359 34.766 Z M 618.359 34.766 L 661.524 34.766 A 8.249 8.249 0 0 0 663.265 34.593 Q 664.413 34.345 665.276 33.742 A 4.867 4.867 0 0 0 665.82 33.301 A 5.231 5.231 0 0 0 666.859 31.981 A 4.336 4.336 0 0 0 667.383 29.883 Q 667.383 27.93 665.82 26.465 A 5.195 5.195 0 0 0 663.516 25.233 Q 662.613 25 661.524 25 L 618.359 25 A 8.249 8.249 0 0 0 616.618 25.173 Q 615.471 25.421 614.607 26.024 A 4.867 4.867 0 0 0 614.063 26.465 A 5.231 5.231 0 0 0 613.024 27.785 A 4.336 4.336 0 0 0 612.5 29.883 Q 612.5 31.836 614.063 33.301 A 5.195 5.195 0 0 0 616.367 34.533 Q 617.27 34.766 618.359 34.766 Z M 718.359 34.766 L 761.524 34.766 A 8.249 8.249 0 0 0 763.265 34.593 Q 764.413 34.345 765.276 33.742 A 4.867 4.867 0 0 0 765.82 33.301 A 5.231 5.231 0 0 0 766.859 31.981 A 4.336 4.336 0 0 0 767.383 29.883 Q 767.383 27.93 765.82 26.465 A 5.195 5.195 0 0 0 763.516 25.233 Q 762.613 25 761.524 25 L 718.359 25 A 8.249 8.249 0 0 0 716.618 25.173 Q 715.471 25.421 714.607 26.024 A 4.867 4.867 0 0 0 714.063 26.465 A 5.231 5.231 0 0 0 713.024 27.785 A 4.336 4.336 0 0 0 712.5 29.883 Q 712.5 31.836 714.063 33.301 A 5.195 5.195 0 0 0 716.367 34.533 Q 717.27 34.766 718.359 34.766 Z M 418.359 84.766 L 461.524 84.766 A 8.249 8.249 0 0 0 463.265 84.593 Q 464.413 84.345 465.276 83.742 A 4.867 4.867 0 0 0 465.82 83.301 A 5.231 5.231 0 0 0 466.859 81.981 A 4.336 4.336 0 0 0 467.383 79.883 Q 467.383 77.93 465.82 76.465 A 5.195 5.195 0 0 0 463.516 75.233 Q 462.613 75 461.524 75 L 418.359 75 A 8.249 8.249 0 0 0 416.618 75.173 Q 415.471 75.421 414.607 76.024 A 4.867 4.867 0 0 0 414.063 76.465 A 5.231 5.231 0 0 0 413.024 77.785 A 4.336 4.336 0 0 0 412.5 79.883 Q 412.5 81.836 414.063 83.301 A 5.195 5.195 0 0 0 416.367 84.533 Q 417.27 84.766 418.359 84.766 Z M 518.359 84.766 L 561.524 84.766 A 8.249 8.249 0 0 0 563.265 84.593 Q 564.413 84.345 565.276 83.742 A 4.867 4.867 0 0 0 565.82 83.301 A 5.231 5.231 0 0 0 566.859 81.981 A 4.336 4.336 0 0 0 567.383 79.883 Q 567.383 77.93 565.82 76.465 A 5.195 5.195 0 0 0 563.516 75.233 Q 562.613 75 561.524 75 L 518.359 75 A 8.249 8.249 0 0 0 516.618 75.173 Q 515.471 75.421 514.607 76.024 A 4.867 4.867 0 0 0 514.063 76.465 A 5.231 5.231 0 0 0 513.024 77.785 A 4.336 4.336 0 0 0 512.5 79.883 Q 512.5 81.836 514.063 83.301 A 5.195 5.195 0 0 0 516.367 84.533 Q 517.27 84.766 518.359 84.766 Z M 618.359 84.766 L 661.524 84.766 A 8.249 8.249 0 0 0 663.265 84.593 Q 664.413 84.345 665.276 83.742 A 4.867 4.867 0 0 0 665.82 83.301 A 5.231 5.231 0 0 0 666.859 81.981 A 4.336 4.336 0 0 0 667.383 79.883 Q 667.383 77.93 665.82 76.465 A 5.195 5.195 0 0 0 663.516 75.233 Q 662.613 75 661.524 75 L 618.359 75 A 8.249 8.249 0 0 0 616.618 75.173 Q 615.471 75.421 614.607 76.024 A 4.867 4.867 0 0 0 614.063 76.465 A 5.231 5.231 0 0 0 613.024 77.785 A 4.336 4.336 0 0 0 612.5 79.883 Q 612.5 81.836 614.063 83.301 A 5.195 5.195 0 0 0 616.367 84.533 Q 617.27 84.766 618.359 84.766 Z M 718.359 84.766 L 761.524 84.766 A 8.249 8.249 0 0 0 763.265 84.593 Q 764.413 84.345 765.276 83.742 A 4.867 4.867 0 0 0 765.82 83.301 A 5.231 5.231 0 0 0 766.859 81.981 A 4.336 4.336 0 0 0 767.383 79.883 Q 767.383 77.93 765.82 76.465 A 5.195 5.195 0 0 0 763.516 75.233 Q 762.613 75 761.524 75 L 718.359 75 A 8.249 8.249 0 0 0 716.618 75.173 Q 715.471 75.421 714.607 76.024 A 4.867 4.867 0 0 0 714.063 76.465 A 5.231 5.231 0 0 0 713.024 77.785 A 4.336 4.336 0 0 0 712.5 79.883 Q 712.5 81.836 714.063 83.301 A 5.195 5.195 0 0 0 716.367 84.533 Q 717.27 84.766 718.359 84.766 Z M 518.359 22.266 L 549.024 22.266 A 8.249 8.249 0 0 0 550.765 22.093 Q 551.913 21.845 552.776 21.242 A 4.867 4.867 0 0 0 553.32 20.801 A 5.231 5.231 0 0 0 554.359 19.481 A 4.336 4.336 0 0 0 554.883 17.383 Q 554.883 15.43 553.32 13.965 A 5.195 5.195 0 0 0 551.016 12.733 Q 550.113 12.5 549.024 12.5 L 518.359 12.5 A 8.249 8.249 0 0 0 516.618 12.673 Q 515.471 12.921 514.607 13.524 A 4.867 4.867 0 0 0 514.063 13.965 A 5.231 5.231 0 0 0 513.024 15.285 A 4.336 4.336 0 0 0 512.5 17.383 Q 512.5 19.336 514.063 20.801 A 5.195 5.195 0 0 0 516.367 22.033 Q 517.27 22.266 518.359 22.266 Z M 168.359 72.266 L 186.524 72.266 A 8.249 8.249 0 0 0 188.265 72.093 Q 189.413 71.845 190.276 71.242 A 4.867 4.867 0 0 0 190.82 70.801 A 5.231 5.231 0 0 0 191.859 69.481 A 4.336 4.336 0 0 0 192.383 67.383 Q 192.383 65.43 190.82 63.965 A 5.195 5.195 0 0 0 188.516 62.733 Q 187.613 62.5 186.524 62.5 L 168.359 62.5 A 8.249 8.249 0 0 0 166.618 62.673 Q 165.471 62.921 164.607 63.524 A 4.867 4.867 0 0 0 164.063 63.965 A 5.231 5.231 0 0 0 163.024 65.285 A 4.336 4.336 0 0 0 162.5 67.383 Q 162.5 69.336 164.063 70.801 A 5.195 5.195 0 0 0 166.367 72.033 Q 167.27 72.266 168.359 72.266 Z M 530.859 59.766 L 549.024 59.766 A 8.249 8.249 0 0 0 550.765 59.593 Q 551.913 59.345 552.776 58.742 A 4.867 4.867 0 0 0 553.32 58.301 A 5.231 5.231 0 0 0 554.359 56.981 A 4.336 4.336 0 0 0 554.883 54.883 Q 554.883 52.93 553.32 51.465 A 5.195 5.195 0 0 0 551.016 50.233 Q 550.113 50 549.024 50 L 530.859 50 A 8.249 8.249 0 0 0 529.118 50.173 Q 527.971 50.421 527.107 51.024 A 4.867 4.867 0 0 0 526.563 51.465 A 5.231 5.231 0 0 0 525.524 52.785 A 4.336 4.336 0 0 0 525 54.883 Q 525 56.836 526.563 58.301 A 5.195 5.195 0 0 0 528.867 59.533 Q 529.77 59.766 530.859 59.766 Z M 5.859 84.766 L 24.024 84.766 A 8.249 8.249 0 0 0 25.765 84.593 Q 26.913 84.345 27.776 83.742 A 4.867 4.867 0 0 0 28.32 83.301 A 5.231 5.231 0 0 0 29.359 81.981 A 4.336 4.336 0 0 0 29.883 79.883 Q 29.883 77.93 28.32 76.465 A 5.195 5.195 0 0 0 26.016 75.233 Q 25.113 75 24.024 75 L 5.859 75 A 8.249 8.249 0 0 0 4.118 75.173 Q 2.971 75.421 2.107 76.024 A 4.867 4.867 0 0 0 1.563 76.465 A 5.231 5.231 0 0 0 0.524 77.785 A 4.336 4.336 0 0 0 0 79.883 Q 0 81.836 1.563 83.301 A 5.195 5.195 0 0 0 3.867 84.533 Q 4.77 84.766 5.859 84.766 Z M 55.859 84.766 L 74.024 84.766 A 8.249 8.249 0 0 0 75.765 84.593 Q 76.913 84.345 77.776 83.742 A 4.867 4.867 0 0 0 78.32 83.301 A 5.231 5.231 0 0 0 79.359 81.981 A 4.336 4.336 0 0 0 79.883 79.883 Q 79.883 77.93 78.32 76.465 A 5.195 5.195 0 0 0 76.016 75.233 Q 75.113 75 74.024 75 L 55.859 75 A 8.249 8.249 0 0 0 54.118 75.173 Q 52.971 75.421 52.107 76.024 A 4.867 4.867 0 0 0 51.563 76.465 A 5.231 5.231 0 0 0 50.524 77.785 A 4.336 4.336 0 0 0 50 79.883 Q 50 81.836 51.563 83.301 A 5.195 5.195 0 0 0 53.867 84.533 Q 54.77 84.766 55.859 84.766 Z M 55.859 59.766 L 74.024 59.766 A 8.249 8.249 0 0 0 75.765 59.593 Q 76.913 59.345 77.776 58.742 A 4.867 4.867 0 0 0 78.32 58.301 A 5.231 5.231 0 0 0 79.359 56.981 A 4.336 4.336 0 0 0 79.883 54.883 Q 79.883 52.93 78.32 51.465 A 5.195 5.195 0 0 0 76.016 50.233 Q 75.113 50 74.024 50 L 55.859 50 A 8.249 8.249 0 0 0 54.118 50.173 Q 52.971 50.421 52.107 51.024 A 4.867 4.867 0 0 0 51.563 51.465 A 5.231 5.231 0 0 0 50.524 52.785 A 4.336 4.336 0 0 0 50 54.883 Q 50 56.836 51.563 58.301 A 5.195 5.195 0 0 0 53.867 59.533 Q 54.77 59.766 55.859 59.766 Z M 5.859 34.766 L 24.024 34.766 A 8.249 8.249 0 0 0 25.765 34.593 Q 26.913 34.345 27.776 33.742 A 4.867 4.867 0 0 0 28.32 33.301 A 5.231 5.231 0 0 0 29.359 31.981 A 4.336 4.336 0 0 0 29.883 29.883 Q 29.883 27.93 28.32 26.465 A 5.195 5.195 0 0 0 26.016 25.233 Q 25.113 25 24.024 25 L 5.859 25 A 8.249 8.249 0 0 0 4.118 25.173 Q 2.971 25.421 2.107 26.024 A 4.867 4.867 0 0 0 1.563 26.465 A 5.231 5.231 0 0 0 0.524 27.785 A 4.336 4.336 0 0 0 0 29.883 Q 0 31.836 1.563 33.301 A 5.195 5.195 0 0 0 3.867 34.533 Q 4.77 34.766 5.859 34.766 Z M 30.859 9.766 L 49.024 9.766 A 8.249 8.249 0 0 0 50.765 9.593 Q 51.913 9.345 52.776 8.742 A 4.867 4.867 0 0 0 53.32 8.301 A 5.231 5.231 0 0 0 54.359 6.981 A 4.336 4.336 0 0 0 54.883 4.883 Q 54.883 2.93 53.32 1.465 A 5.195 5.195 0 0 0 51.016 0.233 Q 50.113 0 49.024 0 L 30.859 0 A 8.249 8.249 0 0 0 29.118 0.173 Q 27.971 0.421 27.107 1.024 A 4.867 4.867 0 0 0 26.563 1.465 A 5.231 5.231 0 0 0 25.524 2.785 A 4.336 4.336 0 0 0 25 4.883 Q 25 6.836 26.563 8.301 A 5.195 5.195 0 0 0 28.867 9.533 Q 29.77 9.766 30.859 9.766 Z M 105.859 84.766 L 124.024 84.766 A 8.249 8.249 0 0 0 125.765 84.593 Q 126.913 84.345 127.776 83.742 A 4.867 4.867 0 0 0 128.32 83.301 A 5.231 5.231 0 0 0 129.359 81.981 A 4.336 4.336 0 0 0 129.883 79.883 Q 129.883 77.93 128.32 76.465 A 5.195 5.195 0 0 0 126.016 75.233 Q 125.113 75 124.024 75 L 105.859 75 A 8.249 8.249 0 0 0 104.118 75.173 Q 102.971 75.421 102.107 76.024 A 4.867 4.867 0 0 0 101.563 76.465 A 5.231 5.231 0 0 0 100.524 77.785 A 4.336 4.336 0 0 0 100 79.883 Q 100 81.836 101.563 83.301 A 5.195 5.195 0 0 0 103.867 84.533 Q 104.77 84.766 105.859 84.766 Z M 168.359 84.766 L 186.524 84.766 A 8.249 8.249 0 0 0 188.265 84.593 Q 189.413 84.345 190.276 83.742 A 4.867 4.867 0 0 0 190.82 83.301 A 5.231 5.231 0 0 0 191.859 81.981 A 4.336 4.336 0 0 0 192.383 79.883 Q 192.383 77.93 190.82 76.465 A 5.195 5.195 0 0 0 188.516 75.233 Q 187.613 75 186.524 75 L 168.359 75 A 8.249 8.249 0 0 0 166.618 75.173 Q 165.471 75.421 164.607 76.024 A 4.867 4.867 0 0 0 164.063 76.465 A 5.231 5.231 0 0 0 163.024 77.785 A 4.336 4.336 0 0 0 162.5 79.883 Q 162.5 81.836 164.063 83.301 A 5.195 5.195 0 0 0 166.367 84.533 Q 167.27 84.766 168.359 84.766 Z M 105.859 34.766 L 124.024 34.766 A 8.249 8.249 0 0 0 125.765 34.593 Q 126.913 34.345 127.776 33.742 A 4.867 4.867 0 0 0 128.32 33.301 A 5.231 5.231 0 0 0 129.359 31.981 A 4.336 4.336 0 0 0 129.883 29.883 Q 129.883 27.93 128.32 26.465 A 5.195 5.195 0 0 0 126.016 25.233 Q 125.113 25 124.024 25 L 105.859 25 A 8.249 8.249 0 0 0 104.118 25.173 Q 102.971 25.421 102.107 26.024 A 4.867 4.867 0 0 0 101.563 26.465 A 5.231 5.231 0 0 0 100.524 27.785 A 4.336 4.336 0 0 0 100 29.883 Q 100 31.836 101.563 33.301 A 5.195 5.195 0 0 0 103.867 34.533 Q 104.77 34.766 105.859 34.766 Z M 305.859 84.766 L 324.024 84.766 A 8.249 8.249 0 0 0 325.765 84.593 Q 326.913 84.345 327.776 83.742 A 4.867 4.867 0 0 0 328.32 83.301 A 5.231 5.231 0 0 0 329.359 81.981 A 4.336 4.336 0 0 0 329.883 79.883 Q 329.883 77.93 328.32 76.465 A 5.195 5.195 0 0 0 326.016 75.233 Q 325.113 75 324.024 75 L 305.859 75 A 8.249 8.249 0 0 0 304.118 75.173 Q 302.971 75.421 302.107 76.024 A 4.867 4.867 0 0 0 301.563 76.465 A 5.231 5.231 0 0 0 300.524 77.785 A 4.336 4.336 0 0 0 300 79.883 Q 300 81.836 301.563 83.301 A 5.195 5.195 0 0 0 303.867 84.533 Q 304.77 84.766 305.859 84.766 Z M 305.859 47.266 L 324.024 47.266 A 8.249 8.249 0 0 0 325.765 47.093 Q 326.913 46.845 327.776 46.242 A 4.867 4.867 0 0 0 328.32 45.801 A 5.231 5.231 0 0 0 329.359 44.481 A 4.336 4.336 0 0 0 329.883 42.383 Q 329.883 40.43 328.32 38.965 A 5.195 5.195 0 0 0 326.016 37.733 Q 325.113 37.5 324.024 37.5 L 305.859 37.5 A 8.249 8.249 0 0 0 304.118 37.673 Q 302.971 37.921 302.107 38.524 A 4.867 4.867 0 0 0 301.563 38.965 A 5.231 5.231 0 0 0 300.524 40.285 A 4.336 4.336 0 0 0 300 42.383 Q 300 44.336 301.563 45.801 A 5.195 5.195 0 0 0 303.867 47.033 Q 304.77 47.266 305.859 47.266 Z M 405.859 47.266 L 424.024 47.266 A 8.249 8.249 0 0 0 425.765 47.093 Q 426.913 46.845 427.776 46.242 A 4.867 4.867 0 0 0 428.32 45.801 A 5.231 5.231 0 0 0 429.359 44.481 A 4.336 4.336 0 0 0 429.883 42.383 Q 429.883 40.43 428.32 38.965 A 5.195 5.195 0 0 0 426.016 37.733 Q 425.113 37.5 424.024 37.5 L 405.859 37.5 A 8.249 8.249 0 0 0 404.118 37.673 Q 402.971 37.921 402.107 38.524 A 4.867 4.867 0 0 0 401.563 38.965 A 5.231 5.231 0 0 0 400.524 40.285 A 4.336 4.336 0 0 0 400 42.383 Q 400 44.336 401.563 45.801 A 5.195 5.195 0 0 0 403.867 47.033 Q 404.77 47.266 405.859 47.266 Z M 530.859 47.266 L 549.024 47.266 A 8.249 8.249 0 0 0 550.765 47.093 Q 551.913 46.845 552.776 46.242 A 4.867 4.867 0 0 0 553.32 45.801 A 5.231 5.231 0 0 0 554.359 44.481 A 4.336 4.336 0 0 0 554.883 42.383 Q 554.883 40.43 553.32 38.965 A 5.195 5.195 0 0 0 551.016 37.733 Q 550.113 37.5 549.024 37.5 L 530.859 37.5 A 8.249 8.249 0 0 0 529.118 37.673 Q 527.971 37.921 527.107 38.524 A 4.867 4.867 0 0 0 526.563 38.965 A 5.231 5.231 0 0 0 525.524 40.285 A 4.336 4.336 0 0 0 525 42.383 Q 525 44.336 526.563 45.801 A 5.195 5.195 0 0 0 528.867 47.033 Q 529.77 47.266 530.859 47.266 Z M 605.859 47.266 L 624.024 47.266 A 8.249 8.249 0 0 0 625.765 47.093 Q 626.913 46.845 627.776 46.242 A 4.867 4.867 0 0 0 628.32 45.801 A 5.231 5.231 0 0 0 629.359 44.481 A 4.336 4.336 0 0 0 629.883 42.383 Q 629.883 40.43 628.32 38.965 A 5.195 5.195 0 0 0 626.016 37.733 Q 625.113 37.5 624.024 37.5 L 605.859 37.5 A 8.249 8.249 0 0 0 604.118 37.673 Q 602.971 37.921 602.107 38.524 A 4.867 4.867 0 0 0 601.563 38.965 A 5.231 5.231 0 0 0 600.524 40.285 A 4.336 4.336 0 0 0 600 42.383 Q 600 44.336 601.563 45.801 A 5.195 5.195 0 0 0 603.867 47.033 Q 604.77 47.266 605.859 47.266 Z M 755.859 59.766 L 774.024 59.766 A 8.249 8.249 0 0 0 775.765 59.593 Q 776.913 59.345 777.776 58.742 A 4.867 4.867 0 0 0 778.32 58.301 A 5.231 5.231 0 0 0 779.359 56.981 A 4.336 4.336 0 0 0 779.883 54.883 Q 779.883 52.93 778.32 51.465 A 5.195 5.195 0 0 0 776.016 50.233 Q 775.113 50 774.024 50 L 755.859 50 A 8.249 8.249 0 0 0 754.118 50.173 Q 752.971 50.421 752.107 51.024 A 4.867 4.867 0 0 0 751.563 51.465 A 5.231 5.231 0 0 0 750.524 52.785 A 4.336 4.336 0 0 0 750 54.883 Q 750 56.836 751.563 58.301 A 5.195 5.195 0 0 0 753.867 59.533 Q 754.77 59.766 755.859 59.766 Z M 705.859 47.266 L 724.024 47.266 A 8.249 8.249 0 0 0 725.765 47.093 Q 726.913 46.845 727.776 46.242 A 4.867 4.867 0 0 0 728.32 45.801 A 5.231 5.231 0 0 0 729.359 44.481 A 4.336 4.336 0 0 0 729.883 42.383 Q 729.883 40.43 728.32 38.965 A 5.195 5.195 0 0 0 726.016 37.733 Q 725.113 37.5 724.024 37.5 L 705.859 37.5 A 8.249 8.249 0 0 0 704.118 37.673 Q 702.971 37.921 702.107 38.524 A 4.867 4.867 0 0 0 701.563 38.965 A 5.231 5.231 0 0 0 700.524 40.285 A 4.336 4.336 0 0 0 700 42.383 Q 700 44.336 701.563 45.801 A 5.195 5.195 0 0 0 703.867 47.033 Q 704.77 47.266 705.859 47.266 Z M 5.859 72.266 L 24.024 72.266 A 8.249 8.249 0 0 0 25.765 72.093 Q 26.913 71.845 27.776 71.242 A 4.867 4.867 0 0 0 28.32 70.801 A 5.231 5.231 0 0 0 29.359 69.481 A 4.336 4.336 0 0 0 29.883 67.383 Q 29.883 65.43 28.32 63.965 A 5.195 5.195 0 0 0 26.016 62.733 Q 25.113 62.5 24.024 62.5 L 5.859 62.5 A 8.249 8.249 0 0 0 4.118 62.673 Q 2.971 62.921 2.107 63.524 A 4.867 4.867 0 0 0 1.563 63.965 A 5.231 5.231 0 0 0 0.524 65.285 A 4.336 4.336 0 0 0 0 67.383 Q 0 69.336 1.563 70.801 A 5.195 5.195 0 0 0 3.867 72.033 Q 4.77 72.266 5.859 72.266 Z M 55.859 72.266 L 74.024 72.266 A 8.249 8.249 0 0 0 75.765 72.093 Q 76.913 71.845 77.776 71.242 A 4.867 4.867 0 0 0 78.32 70.801 A 5.231 5.231 0 0 0 79.359 69.481 A 4.336 4.336 0 0 0 79.883 67.383 Q 79.883 65.43 78.32 63.965 A 5.195 5.195 0 0 0 76.016 62.733 Q 75.113 62.5 74.024 62.5 L 55.859 62.5 A 8.249 8.249 0 0 0 54.118 62.673 Q 52.971 62.921 52.107 63.524 A 4.867 4.867 0 0 0 51.563 63.965 A 5.231 5.231 0 0 0 50.524 65.285 A 4.336 4.336 0 0 0 50 67.383 Q 50 69.336 51.563 70.801 A 5.195 5.195 0 0 0 53.867 72.033 Q 54.77 72.266 55.859 72.266 Z M 5.859 59.766 L 24.024 59.766 A 8.249 8.249 0 0 0 25.765 59.593 Q 26.913 59.345 27.776 58.742 A 4.867 4.867 0 0 0 28.32 58.301 A 5.231 5.231 0 0 0 29.359 56.981 A 4.336 4.336 0 0 0 29.883 54.883 Q 29.883 52.93 28.32 51.465 A 5.195 5.195 0 0 0 26.016 50.233 Q 25.113 50 24.024 50 L 5.859 50 A 8.249 8.249 0 0 0 4.118 50.173 Q 2.971 50.421 2.107 51.024 A 4.867 4.867 0 0 0 1.563 51.465 A 5.231 5.231 0 0 0 0.524 52.785 A 4.336 4.336 0 0 0 0 54.883 Q 0 56.836 1.563 58.301 A 5.195 5.195 0 0 0 3.867 59.533 Q 4.77 59.766 5.859 59.766 Z M 55.859 34.766 L 74.024 34.766 A 8.249 8.249 0 0 0 75.765 34.593 Q 76.913 34.345 77.776 33.742 A 4.867 4.867 0 0 0 78.32 33.301 A 5.231 5.231 0 0 0 79.359 31.981 A 4.336 4.336 0 0 0 79.883 29.883 Q 79.883 27.93 78.32 26.465 A 5.195 5.195 0 0 0 76.016 25.233 Q 75.113 25 74.024 25 L 55.859 25 A 8.249 8.249 0 0 0 54.118 25.173 Q 52.971 25.421 52.107 26.024 A 4.867 4.867 0 0 0 51.563 26.465 A 5.231 5.231 0 0 0 50.524 27.785 A 4.336 4.336 0 0 0 50 29.883 Q 50 31.836 51.563 33.301 A 5.195 5.195 0 0 0 53.867 34.533 Q 54.77 34.766 55.859 34.766 Z M 105.859 72.266 L 124.024 72.266 A 8.249 8.249 0 0 0 125.765 72.093 Q 126.913 71.845 127.776 71.242 A 4.867 4.867 0 0 0 128.32 70.801 A 5.231 5.231 0 0 0 129.359 69.481 A 4.336 4.336 0 0 0 129.883 67.383 Q 129.883 65.43 128.32 63.965 A 5.195 5.195 0 0 0 126.016 62.733 Q 125.113 62.5 124.024 62.5 L 105.859 62.5 A 8.249 8.249 0 0 0 104.118 62.673 Q 102.971 62.921 102.107 63.524 A 4.867 4.867 0 0 0 101.563 63.965 A 5.231 5.231 0 0 0 100.524 65.285 A 4.336 4.336 0 0 0 100 67.383 Q 100 69.336 101.563 70.801 A 5.195 5.195 0 0 0 103.867 72.033 Q 104.77 72.266 105.859 72.266 Z M 155.859 34.766 L 174.024 34.766 A 8.249 8.249 0 0 0 175.765 34.593 Q 176.913 34.345 177.776 33.742 A 4.867 4.867 0 0 0 178.32 33.301 A 5.231 5.231 0 0 0 179.359 31.981 A 4.336 4.336 0 0 0 179.883 29.883 Q 179.883 27.93 178.32 26.465 A 5.195 5.195 0 0 0 176.016 25.233 Q 175.113 25 174.024 25 L 155.859 25 A 8.249 8.249 0 0 0 154.118 25.173 Q 152.971 25.421 152.107 26.024 A 4.867 4.867 0 0 0 151.563 26.465 A 5.231 5.231 0 0 0 150.524 27.785 A 4.336 4.336 0 0 0 150 29.883 Q 150 31.836 151.563 33.301 A 5.195 5.195 0 0 0 153.867 34.533 Q 154.77 34.766 155.859 34.766 Z M 205.859 72.266 L 224.024 72.266 A 8.249 8.249 0 0 0 225.765 72.093 Q 226.913 71.845 227.776 71.242 A 4.867 4.867 0 0 0 228.32 70.801 A 5.231 5.231 0 0 0 229.359 69.481 A 4.336 4.336 0 0 0 229.883 67.383 Q 229.883 65.43 228.32 63.965 A 5.195 5.195 0 0 0 226.016 62.733 Q 225.113 62.5 224.024 62.5 L 205.859 62.5 A 8.249 8.249 0 0 0 204.118 62.673 Q 202.971 62.921 202.107 63.524 A 4.867 4.867 0 0 0 201.563 63.965 A 5.231 5.231 0 0 0 200.524 65.285 A 4.336 4.336 0 0 0 200 67.383 Q 200 69.336 201.563 70.801 A 5.195 5.195 0 0 0 203.867 72.033 Q 204.77 72.266 205.859 72.266 Z M 255.859 72.266 L 274.024 72.266 A 8.249 8.249 0 0 0 275.765 72.093 Q 276.913 71.845 277.776 71.242 A 4.867 4.867 0 0 0 278.32 70.801 A 5.231 5.231 0 0 0 279.359 69.481 A 4.336 4.336 0 0 0 279.883 67.383 Q 279.883 65.43 278.32 63.965 A 5.195 5.195 0 0 0 276.016 62.733 Q 275.113 62.5 274.024 62.5 L 255.859 62.5 A 8.249 8.249 0 0 0 254.118 62.673 Q 252.971 62.921 252.107 63.524 A 4.867 4.867 0 0 0 251.563 63.965 A 5.231 5.231 0 0 0 250.524 65.285 A 4.336 4.336 0 0 0 250 67.383 Q 250 69.336 251.563 70.801 A 5.195 5.195 0 0 0 253.867 72.033 Q 254.77 72.266 255.859 72.266 Z M 255.859 47.266 L 274.024 47.266 A 8.249 8.249 0 0 0 275.765 47.093 Q 276.913 46.845 277.776 46.242 A 4.867 4.867 0 0 0 278.32 45.801 A 5.231 5.231 0 0 0 279.359 44.481 A 4.336 4.336 0 0 0 279.883 42.383 Q 279.883 40.43 278.32 38.965 A 5.195 5.195 0 0 0 276.016 37.733 Q 275.113 37.5 274.024 37.5 L 255.859 37.5 A 8.249 8.249 0 0 0 254.118 37.673 Q 252.971 37.921 252.107 38.524 A 4.867 4.867 0 0 0 251.563 38.965 A 5.231 5.231 0 0 0 250.524 40.285 A 4.336 4.336 0 0 0 250 42.383 Q 250 44.336 251.563 45.801 A 5.195 5.195 0 0 0 253.867 47.033 Q 254.77 47.266 255.859 47.266 Z M 305.859 72.266 L 324.024 72.266 A 8.249 8.249 0 0 0 325.765 72.093 Q 326.913 71.845 327.776 71.242 A 4.867 4.867 0 0 0 328.32 70.801 A 5.231 5.231 0 0 0 329.359 69.481 A 4.336 4.336 0 0 0 329.883 67.383 Q 329.883 65.43 328.32 63.965 A 5.195 5.195 0 0 0 326.016 62.733 Q 325.113 62.5 324.024 62.5 L 305.859 62.5 A 8.249 8.249 0 0 0 304.118 62.673 Q 302.971 62.921 302.107 63.524 A 4.867 4.867 0 0 0 301.563 63.965 A 5.231 5.231 0 0 0 300.524 65.285 A 4.336 4.336 0 0 0 300 67.383 Q 300 69.336 301.563 70.801 A 5.195 5.195 0 0 0 303.867 72.033 Q 304.77 72.266 305.859 72.266 Z M 305.859 59.766 L 324.024 59.766 A 8.249 8.249 0 0 0 325.765 59.593 Q 326.913 59.345 327.776 58.742 A 4.867 4.867 0 0 0 328.32 58.301 A 5.231 5.231 0 0 0 329.359 56.981 A 4.336 4.336 0 0 0 329.883 54.883 Q 329.883 52.93 328.32 51.465 A 5.195 5.195 0 0 0 326.016 50.233 Q 325.113 50 324.024 50 L 305.859 50 A 8.249 8.249 0 0 0 304.118 50.173 Q 302.971 50.421 302.107 51.024 A 4.867 4.867 0 0 0 301.563 51.465 A 5.231 5.231 0 0 0 300.524 52.785 A 4.336 4.336 0 0 0 300 54.883 Q 300 56.836 301.563 58.301 A 5.195 5.195 0 0 0 303.867 59.533 Q 304.77 59.766 305.859 59.766 Z M 355.859 47.266 L 374.024 47.266 A 8.249 8.249 0 0 0 375.765 47.093 Q 376.913 46.845 377.776 46.242 A 4.867 4.867 0 0 0 378.32 45.801 A 5.231 5.231 0 0 0 379.359 44.481 A 4.336 4.336 0 0 0 379.883 42.383 Q 379.883 40.43 378.32 38.965 A 5.195 5.195 0 0 0 376.016 37.733 Q 375.113 37.5 374.024 37.5 L 355.859 37.5 A 8.249 8.249 0 0 0 354.118 37.673 Q 352.971 37.921 352.107 38.524 A 4.867 4.867 0 0 0 351.563 38.965 A 5.231 5.231 0 0 0 350.524 40.285 A 4.336 4.336 0 0 0 350 42.383 Q 350 44.336 351.563 45.801 A 5.195 5.195 0 0 0 353.867 47.033 Q 354.77 47.266 355.859 47.266 Z M 405.859 72.266 L 424.024 72.266 A 8.249 8.249 0 0 0 425.765 72.093 Q 426.913 71.845 427.776 71.242 A 4.867 4.867 0 0 0 428.32 70.801 A 5.231 5.231 0 0 0 429.359 69.481 A 4.336 4.336 0 0 0 429.883 67.383 Q 429.883 65.43 428.32 63.965 A 5.195 5.195 0 0 0 426.016 62.733 Q 425.113 62.5 424.024 62.5 L 405.859 62.5 A 8.249 8.249 0 0 0 404.118 62.673 Q 402.971 62.921 402.107 63.524 A 4.867 4.867 0 0 0 401.563 63.965 A 5.231 5.231 0 0 0 400.524 65.285 A 4.336 4.336 0 0 0 400 67.383 Q 400 69.336 401.563 70.801 A 5.195 5.195 0 0 0 403.867 72.033 Q 404.77 72.266 405.859 72.266 Z M 455.859 47.266 L 474.024 47.266 A 8.249 8.249 0 0 0 475.765 47.093 Q 476.913 46.845 477.776 46.242 A 4.867 4.867 0 0 0 478.32 45.801 A 5.231 5.231 0 0 0 479.359 44.481 A 4.336 4.336 0 0 0 479.883 42.383 Q 479.883 40.43 478.32 38.965 A 5.195 5.195 0 0 0 476.016 37.733 Q 475.113 37.5 474.024 37.5 L 455.859 37.5 A 8.249 8.249 0 0 0 454.118 37.673 Q 452.971 37.921 452.107 38.524 A 4.867 4.867 0 0 0 451.563 38.965 A 5.231 5.231 0 0 0 450.524 40.285 A 4.336 4.336 0 0 0 450 42.383 Q 450 44.336 451.563 45.801 A 5.195 5.195 0 0 0 453.867 47.033 Q 454.77 47.266 455.859 47.266 Z M 530.859 72.266 L 549.024 72.266 A 8.249 8.249 0 0 0 550.765 72.093 Q 551.913 71.845 552.776 71.242 A 4.867 4.867 0 0 0 553.32 70.801 A 5.231 5.231 0 0 0 554.359 69.481 A 4.336 4.336 0 0 0 554.883 67.383 Q 554.883 65.43 553.32 63.965 A 5.195 5.195 0 0 0 551.016 62.733 Q 550.113 62.5 549.024 62.5 L 530.859 62.5 A 8.249 8.249 0 0 0 529.118 62.673 Q 527.971 62.921 527.107 63.524 A 4.867 4.867 0 0 0 526.563 63.965 A 5.231 5.231 0 0 0 525.524 65.285 A 4.336 4.336 0 0 0 525 67.383 Q 525 69.336 526.563 70.801 A 5.195 5.195 0 0 0 528.867 72.033 Q 529.77 72.266 530.859 72.266 Z M 605.859 72.266 L 624.024 72.266 A 8.249 8.249 0 0 0 625.765 72.093 Q 626.913 71.845 627.776 71.242 A 4.867 4.867 0 0 0 628.32 70.801 A 5.231 5.231 0 0 0 629.359 69.481 A 4.336 4.336 0 0 0 629.883 67.383 Q 629.883 65.43 628.32 63.965 A 5.195 5.195 0 0 0 626.016 62.733 Q 625.113 62.5 624.024 62.5 L 605.859 62.5 A 8.249 8.249 0 0 0 604.118 62.673 Q 602.971 62.921 602.107 63.524 A 4.867 4.867 0 0 0 601.563 63.965 A 5.231 5.231 0 0 0 600.524 65.285 A 4.336 4.336 0 0 0 600 67.383 Q 600 69.336 601.563 70.801 A 5.195 5.195 0 0 0 603.867 72.033 Q 604.77 72.266 605.859 72.266 Z M 655.859 47.266 L 674.024 47.266 A 8.249 8.249 0 0 0 675.765 47.093 Q 676.913 46.845 677.776 46.242 A 4.867 4.867 0 0 0 678.32 45.801 A 5.231 5.231 0 0 0 679.359 44.481 A 4.336 4.336 0 0 0 679.883 42.383 Q 679.883 40.43 678.32 38.965 A 5.195 5.195 0 0 0 676.016 37.733 Q 675.113 37.5 674.024 37.5 L 655.859 37.5 A 8.249 8.249 0 0 0 654.118 37.673 Q 652.971 37.921 652.107 38.524 A 4.867 4.867 0 0 0 651.563 38.965 A 5.231 5.231 0 0 0 650.524 40.285 A 4.336 4.336 0 0 0 650 42.383 Q 650 44.336 651.563 45.801 A 5.195 5.195 0 0 0 653.867 47.033 Q 654.77 47.266 655.859 47.266 Z M 705.859 72.266 L 724.024 72.266 A 8.249 8.249 0 0 0 725.765 72.093 Q 726.913 71.845 727.776 71.242 A 4.867 4.867 0 0 0 728.32 70.801 A 5.231 5.231 0 0 0 729.359 69.481 A 4.336 4.336 0 0 0 729.883 67.383 Q 729.883 65.43 728.32 63.965 A 5.195 5.195 0 0 0 726.016 62.733 Q 725.113 62.5 724.024 62.5 L 705.859 62.5 A 8.249 8.249 0 0 0 704.118 62.673 Q 702.971 62.921 702.107 63.524 A 4.867 4.867 0 0 0 701.563 63.965 A 5.231 5.231 0 0 0 700.524 65.285 A 4.336 4.336 0 0 0 700 67.383 Q 700 69.336 701.563 70.801 A 5.195 5.195 0 0 0 703.867 72.033 Q 704.77 72.266 705.859 72.266 Z M 755.859 72.266 L 774.024 72.266 A 8.249 8.249 0 0 0 775.765 72.093 Q 776.913 71.845 777.776 71.242 A 4.867 4.867 0 0 0 778.32 70.801 A 5.231 5.231 0 0 0 779.359 69.481 A 4.336 4.336 0 0 0 779.883 67.383 Q 779.883 65.43 778.32 63.965 A 5.195 5.195 0 0 0 776.016 62.733 Q 775.113 62.5 774.024 62.5 L 755.859 62.5 A 8.249 8.249 0 0 0 754.118 62.673 Q 752.971 62.921 752.107 63.524 A 4.867 4.867 0 0 0 751.563 63.965 A 5.231 5.231 0 0 0 750.524 65.285 A 4.336 4.336 0 0 0 750 67.383 Q 750 69.336 751.563 70.801 A 5.195 5.195 0 0 0 753.867 72.033 Q 754.77 72.266 755.859 72.266 Z M 705.859 59.766 L 724.024 59.766 A 8.249 8.249 0 0 0 725.765 59.593 Q 726.913 59.345 727.776 58.742 A 4.867 4.867 0 0 0 728.32 58.301 A 5.231 5.231 0 0 0 729.359 56.981 A 4.336 4.336 0 0 0 729.883 54.883 Q 729.883 52.93 728.32 51.465 A 5.195 5.195 0 0 0 726.016 50.233 Q 725.113 50 724.024 50 L 705.859 50 A 8.249 8.249 0 0 0 704.118 50.173 Q 702.971 50.421 702.107 51.024 A 4.867 4.867 0 0 0 701.563 51.465 A 5.231 5.231 0 0 0 700.524 52.785 A 4.336 4.336 0 0 0 700 54.883 Q 700 56.836 701.563 58.301 A 5.195 5.195 0 0 0 703.867 59.533 Q 704.77 59.766 705.859 59.766 Z M 755.859 47.266 L 774.024 47.266 A 8.249 8.249 0 0 0 775.765 47.093 Q 776.913 46.845 777.776 46.242 A 4.867 4.867 0 0 0 778.32 45.801 A 5.231 5.231 0 0 0 779.359 44.481 A 4.336 4.336 0 0 0 779.883 42.383 Q 779.883 40.43 778.32 38.965 A 5.195 5.195 0 0 0 776.016 37.733 Q 775.113 37.5 774.024 37.5 L 755.859 37.5 A 8.249 8.249 0 0 0 754.118 37.673 Q 752.971 37.921 752.107 38.524 A 4.867 4.867 0 0 0 751.563 38.965 A 5.231 5.231 0 0 0 750.524 40.285 A 4.336 4.336 0 0 0 750 42.383 Q 750 44.336 751.563 45.801 A 5.195 5.195 0 0 0 753.867 47.033 Q 754.77 47.266 755.859 47.266 Z M 530.859 34.766 L 549.024 34.766 A 8.249 8.249 0 0 0 550.765 34.593 Q 551.913 34.345 552.776 33.742 A 4.867 4.867 0 0 0 553.32 33.301 A 5.231 5.231 0 0 0 554.359 31.981 A 4.336 4.336 0 0 0 554.883 29.883 Q 554.883 27.93 553.32 26.465 A 5.195 5.195 0 0 0 551.016 25.233 Q 550.113 25 549.024 25 L 530.859 25 A 8.249 8.249 0 0 0 529.118 25.173 Q 527.971 25.421 527.107 26.024 A 4.867 4.867 0 0 0 526.563 26.465 A 5.231 5.231 0 0 0 525.524 27.785 A 4.336 4.336 0 0 0 525 29.883 Q 525 31.836 526.563 33.301 A 5.195 5.195 0 0 0 528.867 34.533 Q 529.77 34.766 530.859 34.766 Z M 142.481 72.266 L 149.902 72.266 A 5.172 5.172 0 0 0 151.756 71.944 A 4.673 4.673 0 0 0 153.467 70.801 A 4.764 4.764 0 0 0 154.883 67.383 A 4.764 4.764 0 0 0 153.467 63.965 A 4.725 4.725 0 0 0 150.036 62.502 A 6.204 6.204 0 0 0 149.902 62.5 L 142.481 62.5 A 5.172 5.172 0 0 0 140.627 62.822 A 4.673 4.673 0 0 0 138.916 63.965 A 4.764 4.764 0 0 0 137.5 67.383 A 4.764 4.764 0 0 0 138.916 70.801 A 4.725 4.725 0 0 0 142.347 72.264 A 6.204 6.204 0 0 0 142.481 72.266 Z" vector-effect="non-scaling-stroke"/></g></svg>